<svg xmlns="http://www.w3.org/2000/svg" viewBox="0 0 538.93 538.93"><defs><style>.cls-1{fill:#fff;}</style></defs><g id="Layer_1" data-name="Layer 1"><circle cx="269.46" cy="269.46" r="269.46"/><path class="cls-1" d="M396.56,229.65h0L318,286.72l30,92.34h0C398.58,342.33,415.11,286.72,396.56,229.65Z"/><polygon class="cls-1" points="269.46 136.38 172.37 136.38 142.37 229.65 142.37 229.65 239.46 229.65 269.46 136.38"/><polygon class="cls-1" points="190.91 379.06 269.46 435.21 348.01 379.06 269.46 321.99 190.91 379.06"/><path class="cls-1" d="M142.37,229.65c-18.55,57.07-2,112.68,48.54,149.41h0l30-92.34Z"/><polygon class="cls-1" points="396.56 229.65 366.56 136.38 269.46 136.38 299.47 229.65 396.56 229.65"/></g></svg>